# xmcd
#
# Track frame offsets:
#	150
#	14477
#	22537
#	32192
#	41552
#	51982
#	61477
#	71432
#	82777
#	94110
#	104427
#	113915
#	124742
#	135345
#	146455
#	159657
#	170712
#	181087
#	193620
#	203872
#	213200
#
# Disc length: 3168 seconds
#
# Revision: 0
# Processed by: cddbd v1.5.1PL0 Copyright (c) Steve Scherf et al.
# Submitted via: EasyCDDAExtractor 7.5.2.1
#
DISCID=1c0c5e15
DTITLE=Indios Tabajaras - Again
DYEAR=1900
DGENRE=Country
TTITLE0=Maria Helena
TTITLE1=Luna Rossa
TTITLE2=La Mer
TTITLE3=Love Theme From The Godfather
TTITLE4=Moonlight Serenade
TTITLE5=Por Que Eres Asi?
TTITLE6=The High And The Mighty
TTITLE7=El Condor Pasa
TTITLE8=Smoke Gets In Your Eyes
TTITLE9=Raindrops Keep Fallin' On My Head
TTITLE10=Moonlight and shadows
TTITLE11=Garota De Ipanema
TTITLE12=Love Is A Many Splendored Thing
TTITLE13=Maria La O 
TTITLE14=Tender Is The Night
TTITLE15=Solamente Una Vez
TTITLE16=Les Feuilles Mortes
TTITLE17=Johnny Guitar
TTITLE18=Blue Moon
TTITLE19=Frenesi
TTITLE20=Fantasia Improviso
EXTD=
EXTT0=
EXTT1=
EXTT2=
EXTT3=
EXTT4=
EXTT5=
EXTT6=
EXTT7=
EXTT8=
EXTT9=
EXTT10=
EXTT11=
EXTT12=
EXTT13=
EXTT14=
EXTT15=
EXTT16=
EXTT17=
EXTT18=
EXTT19=
EXTT20=
PLAYORDER=
